# xmcd CD database file
#
# Track frame offsets:
#	150
#	22200
#	40224
#	60485
#	154203
#	180196
#
# Disc length: 3162 seconds
#
# Revision: 6
# Processed by: cddbd v1.5.2PL0 Copyright (c) Steve Scherf et al.
# Submitted via: CDex 1.51
#
DISCID=440c5806
DTITLE=Bohuslav Martinu - 3 Fragments de l'Opéra Juliette  (Sir Charles Mackerras, Czech Philh. Orch.)
DYEAR=2008
DGENRE=Contemporain
TTITLE0=Suite from the Opera Juliette  (The Key to Dream) - I. Poco andante
TTITLE1=Suite from the Opera Juliette  (The Key to Dream) - II. Vivo
TTITLE2=Suite from the Opera Juliette  (The Key to Dream) - III. Lento
TTITLE3=3 Fragments de l'Opéra Juliette  (La Clé des Songes) - I. La scène de la forêt
TTITLE4=3 Fragments de l'Opéra Juliette  (La Clé des Songes) - II. La scène des souvenirs
TTITLE5=3 Fragments de l'Opéra Juliette  (La Clé des Songes) - III. Finale du IIIè acte
EXTD=YEAR: 2008
EXTT0=
EXTT1=
EXTT2=
EXTT3=
EXTT4=
EXTT5=
PLAYORDER=
